<mxfile host="www.draw.io" modified="2019-12-14T03:09:39.729Z" agent="Mozilla/5.0 (Macintosh; Intel Mac OS X 10_14_4) AppleWebKit/537.36 (KHTML, like Gecko) Chrome/78.0.3904.108 Safari/537.36" etag="ciIAueaABXDPDi30rlXz" version="12.3.9" type="github" pages="1">
  <diagram id="UEV5ziArVBSBNvAnIUXD" name="Page-1">
    <mxGraphModel dx="1186" dy="715" grid="1" gridSize="10" guides="1" tooltips="1" connect="1" arrows="1" fold="1" page="1" pageScale="1" pageWidth="850" pageHeight="1100" math="0" shadow="0">
      <root>
        <mxCell id="0"/>
        <mxCell id="1" parent="0"/>
        <mxCell id="InuDyYg3k96elnhqx1I6-22" value="" style="rounded=0;whiteSpace=wrap;html=1;dashed=1;fillColor=none;" vertex="1" parent="1">
          <mxGeometry x="39" y="50" width="181" height="130" as="geometry"/>
        </mxCell>
        <mxCell id="InuDyYg3k96elnhqx1I6-15" value="&lt;b&gt;&lt;font style=&quot;font-size: 13px&quot;&gt;startSandbox&lt;/font&gt;&lt;/b&gt;&lt;br&gt;&lt;br&gt;&lt;br&gt;&lt;br&gt;&lt;br&gt;&lt;br&gt;&lt;br&gt;&lt;br&gt;&lt;br&gt;&lt;br&gt;&lt;br&gt;&lt;br&gt;&lt;br&gt;&lt;br&gt;&lt;br&gt;&lt;br&gt;&lt;br&gt;&lt;br&gt;&lt;br&gt;&lt;br&gt;&lt;br&gt;&lt;br&gt;&lt;br&gt;&lt;br&gt;&lt;br&gt;&lt;br&gt;&lt;br&gt;&lt;br&gt;&lt;br&gt;&lt;br&gt;&lt;br&gt;&lt;br&gt;&lt;br&gt;&lt;br&gt;&lt;br&gt;&lt;br&gt;&lt;br&gt;&lt;br&gt;&lt;br&gt;&lt;br&gt;&lt;br&gt;&lt;br&gt;&lt;br&gt;&lt;br&gt;&lt;br&gt;&lt;br&gt;&lt;br&gt;&lt;br&gt;&lt;br&gt;" style="rounded=0;whiteSpace=wrap;html=1;fillColor=none;dashed=1;" vertex="1" parent="1">
          <mxGeometry x="920" y="30" width="730" height="710" as="geometry"/>
        </mxCell>
        <mxCell id="MU1Cu7uwluX9F1lw6Ey1-50" value="" style="rounded=0;whiteSpace=wrap;html=1;dashed=1;fillColor=none;" parent="1" vertex="1">
          <mxGeometry x="1033" y="267" width="380" height="440" as="geometry"/>
        </mxCell>
        <mxCell id="MU1Cu7uwluX9F1lw6Ey1-21" value="" style="rounded=0;whiteSpace=wrap;html=1;fillColor=none;dashed=1;" parent="1" vertex="1">
          <mxGeometry x="255" y="30" width="620" height="520" as="geometry"/>
        </mxCell>
        <mxCell id="MU1Cu7uwluX9F1lw6Ey1-3" value="" style="edgeStyle=orthogonalEdgeStyle;rounded=0;orthogonalLoop=1;jettySize=auto;html=1;entryX=0;entryY=0.115;entryDx=0;entryDy=0;entryPerimeter=0;" parent="1" edge="1">
          <mxGeometry relative="1" as="geometry">
            <mxPoint x="189" y="152" as="sourcePoint"/>
            <mxPoint x="255" y="152" as="targetPoint"/>
          </mxGeometry>
        </mxCell>
        <mxCell id="MU1Cu7uwluX9F1lw6Ey1-1" value="start ttrpc Server" style="rounded=1;whiteSpace=wrap;html=1;" parent="1" vertex="1">
          <mxGeometry x="69" y="70" width="120" height="40" as="geometry"/>
        </mxCell>
        <mxCell id="MU1Cu7uwluX9F1lw6Ey1-6" value="" style="edgeStyle=orthogonalEdgeStyle;rounded=0;orthogonalLoop=1;jettySize=auto;html=1;" parent="1" source="MU1Cu7uwluX9F1lw6Ey1-2" target="MU1Cu7uwluX9F1lw6Ey1-5" edge="1">
          <mxGeometry relative="1" as="geometry"/>
        </mxCell>
        <mxCell id="MU1Cu7uwluX9F1lw6Ey1-2" value="createAssets" style="rounded=1;whiteSpace=wrap;html=1;dashed=1;dashPattern=1 1;" parent="1" vertex="1">
          <mxGeometry x="305" y="220" width="120" height="60" as="geometry"/>
        </mxCell>
        <mxCell id="MU1Cu7uwluX9F1lw6Ey1-9" value="" style="edgeStyle=orthogonalEdgeStyle;rounded=0;orthogonalLoop=1;jettySize=auto;html=1;" parent="1" source="MU1Cu7uwluX9F1lw6Ey1-5" target="MU1Cu7uwluX9F1lw6Ey1-8" edge="1">
          <mxGeometry relative="1" as="geometry"/>
        </mxCell>
        <mxCell id="MU1Cu7uwluX9F1lw6Ey1-5" value="newSandbox" style="rounded=1;whiteSpace=wrap;html=1;" parent="1" vertex="1">
          <mxGeometry x="505" y="220" width="120" height="60" as="geometry"/>
        </mxCell>
        <mxCell id="MU1Cu7uwluX9F1lw6Ey1-12" value="" style="edgeStyle=orthogonalEdgeStyle;rounded=0;orthogonalLoop=1;jettySize=auto;html=1;dashed=1;" parent="1" source="MU1Cu7uwluX9F1lw6Ey1-8" target="MU1Cu7uwluX9F1lw6Ey1-11" edge="1">
          <mxGeometry relative="1" as="geometry"/>
        </mxCell>
        <mxCell id="MU1Cu7uwluX9F1lw6Ey1-8" value="agent.createSandbox" style="rounded=1;whiteSpace=wrap;html=1;" parent="1" vertex="1">
          <mxGeometry x="705" y="220" width="120" height="60" as="geometry"/>
        </mxCell>
        <mxCell id="MU1Cu7uwluX9F1lw6Ey1-4" value="从spec 里获取annotations，比如kernel path，image path和initrd path 等，然后将这些annotations 设置到sandbox 的config 中，并设置到hypervisor的配置中。" style="shape=callout;whiteSpace=wrap;html=1;perimeter=calloutPerimeter;" parent="1" vertex="1">
          <mxGeometry x="280" y="60" width="170" height="160" as="geometry"/>
        </mxCell>
        <mxCell id="MU1Cu7uwluX9F1lw6Ey1-7" value="根据sandbox config初始化一个san&#39;d&#39;box 结构体，同时初始化&lt;br&gt;network，netwrokns，hypervisor, deviceManager agent等" style="shape=callout;whiteSpace=wrap;html=1;perimeter=calloutPerimeter;" parent="1" vertex="1">
          <mxGeometry x="490" y="90" width="170" height="130" as="geometry"/>
        </mxCell>
        <mxCell id="MU1Cu7uwluX9F1lw6Ey1-10" value="主要是根据配置初始化一些agent的设置" style="shape=callout;whiteSpace=wrap;html=1;perimeter=calloutPerimeter;" parent="1" vertex="1">
          <mxGeometry x="680" y="90" width="170" height="130" as="geometry"/>
        </mxCell>
        <mxCell id="MU1Cu7uwluX9F1lw6Ey1-18" value="" style="edgeStyle=orthogonalEdgeStyle;rounded=0;orthogonalLoop=1;jettySize=auto;html=1;dashed=1;" parent="1" source="MU1Cu7uwluX9F1lw6Ey1-11" target="MU1Cu7uwluX9F1lw6Ey1-17" edge="1">
          <mxGeometry relative="1" as="geometry"/>
        </mxCell>
        <mxCell id="MU1Cu7uwluX9F1lw6Ey1-11" value="agent.configure" style="rounded=0;whiteSpace=wrap;html=1;" parent="1" vertex="1">
          <mxGeometry x="705" y="340" width="120" height="60" as="geometry"/>
        </mxCell>
        <mxCell id="MU1Cu7uwluX9F1lw6Ey1-17" value="1. 通过hyeorvisor 添加socket 设备&lt;br&gt;2. 如果hypervisor支持共享文件，给hypervisor添加共享文件" style="rounded=0;whiteSpace=wrap;html=1;" parent="1" vertex="1">
          <mxGeometry x="665" y="480" width="200" height="60" as="geometry"/>
        </mxCell>
        <mxCell id="MU1Cu7uwluX9F1lw6Ey1-14" value="调用hypervisor 创建用与agent 通信的socket" style="whiteSpace=wrap;html=1;rounded=1;arcSize=50;align=center;verticalAlign=middle;container=1;recursiveResize=0;strokeWidth=1;autosize=1;spacing=4;treeFolding=1;treeMoving=1;" parent="1" vertex="1">
          <mxGeometry x="355" y="355" width="280" height="30" as="geometry"/>
        </mxCell>
        <mxCell id="MU1Cu7uwluX9F1lw6Ey1-15" value="" style="edgeStyle=entityRelationEdgeStyle;startArrow=none;endArrow=none;segment=10;curved=1;dashed=1;exitX=0;exitY=0.5;exitDx=0;exitDy=0;" parent="1" source="MU1Cu7uwluX9F1lw6Ey1-11" target="MU1Cu7uwluX9F1lw6Ey1-14" edge="1">
          <mxGeometry relative="1" as="geometry">
            <mxPoint x="700" y="500" as="sourcePoint"/>
          </mxGeometry>
        </mxCell>
        <mxCell id="MU1Cu7uwluX9F1lw6Ey1-28" value="" style="edgeStyle=orthogonalEdgeStyle;rounded=0;orthogonalLoop=1;jettySize=auto;html=1;dashed=1;" parent="1" edge="1">
          <mxGeometry relative="1" as="geometry">
            <mxPoint x="876" y="184" as="sourcePoint"/>
            <mxPoint x="920" y="184" as="targetPoint"/>
          </mxGeometry>
        </mxCell>
        <mxCell id="MU1Cu7uwluX9F1lw6Ey1-32" value="" style="edgeStyle=orthogonalEdgeStyle;rounded=0;orthogonalLoop=1;jettySize=auto;html=1;dashed=1;" parent="1" source="MU1Cu7uwluX9F1lw6Ey1-27" target="MU1Cu7uwluX9F1lw6Ey1-31" edge="1">
          <mxGeometry relative="1" as="geometry"/>
        </mxCell>
        <mxCell id="MU1Cu7uwluX9F1lw6Ey1-27" value="createNetwork" style="rounded=0;whiteSpace=wrap;html=1;fillColor=none;" parent="1" vertex="1">
          <mxGeometry x="956" y="159" width="100" height="50" as="geometry"/>
        </mxCell>
        <mxCell id="MU1Cu7uwluX9F1lw6Ey1-49" value="" style="edgeStyle=orthogonalEdgeStyle;rounded=0;orthogonalLoop=1;jettySize=auto;html=1;dashed=1;entryX=0.434;entryY=-0.002;entryDx=0;entryDy=0;entryPerimeter=0;" parent="1" source="MU1Cu7uwluX9F1lw6Ey1-31" edge="1" target="MU1Cu7uwluX9F1lw6Ey1-50">
          <mxGeometry relative="1" as="geometry">
            <mxPoint x="1186" y="267" as="targetPoint"/>
          </mxGeometry>
        </mxCell>
        <mxCell id="InuDyYg3k96elnhqx1I6-17" value="" style="edgeStyle=orthogonalEdgeStyle;rounded=0;orthogonalLoop=1;jettySize=auto;html=1;" edge="1" parent="1" source="MU1Cu7uwluX9F1lw6Ey1-31" target="InuDyYg3k96elnhqx1I6-16">
          <mxGeometry relative="1" as="geometry"/>
        </mxCell>
        <mxCell id="MU1Cu7uwluX9F1lw6Ey1-31" value="agent.StartSandbox" style="rounded=0;whiteSpace=wrap;html=1;fillColor=none;" parent="1" vertex="1">
          <mxGeometry x="1136" y="159" width="124" height="50" as="geometry"/>
        </mxCell>
        <mxCell id="InuDyYg3k96elnhqx1I6-16" value="hypervisor.StartSandbox" style="rounded=0;whiteSpace=wrap;html=1;fillColor=none;" vertex="1" parent="1">
          <mxGeometry x="1316" y="159" width="164" height="50" as="geometry"/>
        </mxCell>
        <mxCell id="MU1Cu7uwluX9F1lw6Ey1-22" value="&lt;b&gt;createSandbox&lt;/b&gt;" style="text;html=1;strokeColor=none;fillColor=none;align=center;verticalAlign=middle;whiteSpace=wrap;rounded=0;" parent="1" vertex="1">
          <mxGeometry x="545" y="40" width="40" height="20" as="geometry"/>
        </mxCell>
        <mxCell id="MU1Cu7uwluX9F1lw6Ey1-29" value="如果不支持热的插拔话，扫描netns，创建相应的网络 endpoints，并将endpoints attach到hypervisor的启动命令中" style="whiteSpace=wrap;html=1;rounded=1;arcSize=50;align=center;verticalAlign=middle;container=1;recursiveResize=0;strokeWidth=1;autosize=1;spacing=4;treeFolding=1;treeMoving=1;fillColor=none;" parent="1" vertex="1">
          <mxGeometry x="940" y="60" width="640" height="60" as="geometry"/>
        </mxCell>
        <mxCell id="MU1Cu7uwluX9F1lw6Ey1-30" value="" style="edgeStyle=entityRelationEdgeStyle;startArrow=none;endArrow=none;segment=10;curved=1;dashed=1;exitX=0.5;exitY=0;exitDx=0;exitDy=0;" parent="1" source="MU1Cu7uwluX9F1lw6Ey1-27" target="MU1Cu7uwluX9F1lw6Ey1-29" edge="1">
          <mxGeometry relative="1" as="geometry">
            <mxPoint x="1224" y="304" as="sourcePoint"/>
          </mxGeometry>
        </mxCell>
        <mxCell id="MU1Cu7uwluX9F1lw6Ey1-51" value="如果支持热插拔的话，将网络热插拔进hypervisor中" style="rounded=0;whiteSpace=wrap;html=1;fillColor=none;" parent="1" vertex="1">
          <mxGeometry x="1140" y="282" width="120" height="61" as="geometry"/>
        </mxCell>
        <mxCell id="MU1Cu7uwluX9F1lw6Ey1-56" value="agent.startSandbox&lt;br&gt;&lt;br&gt;&lt;br&gt;&lt;br&gt;&lt;br&gt;&lt;br&gt;&lt;br&gt;&lt;br&gt;&lt;br&gt;&lt;br&gt;&lt;br&gt;&lt;br&gt;&lt;br&gt;&lt;br&gt;&lt;br&gt;&lt;br&gt;&lt;br&gt;&lt;br&gt;&lt;br&gt;&lt;br&gt;&lt;br&gt;" style="rounded=0;whiteSpace=wrap;html=1;fillColor=none;" parent="1" vertex="1">
          <mxGeometry x="1081" y="386" width="300" height="301" as="geometry"/>
        </mxCell>
        <mxCell id="MU1Cu7uwluX9F1lw6Ey1-57" value="" style="endArrow=classic;html=1;dashed=1;exitX=0.5;exitY=1;exitDx=0;exitDy=0;entryX=0.5;entryY=0;entryDx=0;entryDy=0;" parent="1" source="MU1Cu7uwluX9F1lw6Ey1-51" target="MU1Cu7uwluX9F1lw6Ey1-56" edge="1">
          <mxGeometry width="50" height="50" relative="1" as="geometry">
            <mxPoint x="1184" y="448" as="sourcePoint"/>
            <mxPoint x="1186" y="496" as="targetPoint"/>
          </mxGeometry>
        </mxCell>
        <mxCell id="MU1Cu7uwluX9F1lw6Ey1-63" value="" style="edgeStyle=orthogonalEdgeStyle;rounded=0;orthogonalLoop=1;jettySize=auto;html=1;dashed=1;" parent="1" source="MU1Cu7uwluX9F1lw6Ey1-60" target="MU1Cu7uwluX9F1lw6Ey1-62" edge="1">
          <mxGeometry relative="1" as="geometry"/>
        </mxCell>
        <mxCell id="MU1Cu7uwluX9F1lw6Ey1-60" value="获取hostname&lt;br&gt;dns等" style="rounded=0;whiteSpace=wrap;html=1;dashed=1;fillColor=none;" parent="1" vertex="1">
          <mxGeometry x="1170" y="430" width="120" height="30" as="geometry"/>
        </mxCell>
        <mxCell id="MU1Cu7uwluX9F1lw6Ey1-65" value="" style="edgeStyle=orthogonalEdgeStyle;rounded=0;orthogonalLoop=1;jettySize=auto;html=1;dashed=1;" parent="1" source="MU1Cu7uwluX9F1lw6Ey1-62" target="MU1Cu7uwluX9F1lw6Ey1-64" edge="1">
          <mxGeometry relative="1" as="geometry"/>
        </mxCell>
        <mxCell id="MU1Cu7uwluX9F1lw6Ey1-62" value="check quest 里的agent 有没有起来" style="rounded=0;whiteSpace=wrap;html=1;dashed=1;fillColor=none;" parent="1" vertex="1">
          <mxGeometry x="1246" y="517" width="120" height="30" as="geometry"/>
        </mxCell>
        <mxCell id="MU1Cu7uwluX9F1lw6Ey1-68" value="" style="edgeStyle=orthogonalEdgeStyle;rounded=0;orthogonalLoop=1;jettySize=auto;html=1;dashed=1;" parent="1" source="MU1Cu7uwluX9F1lw6Ey1-64" target="MU1Cu7uwluX9F1lw6Ey1-67" edge="1">
          <mxGeometry relative="1" as="geometry"/>
        </mxCell>
        <mxCell id="MU1Cu7uwluX9F1lw6Ey1-64" value="update interface&lt;br&gt;update routes" style="rounded=0;whiteSpace=wrap;html=1;dashed=1;fillColor=none;" parent="1" vertex="1">
          <mxGeometry x="1096" y="517" width="120" height="30" as="geometry"/>
        </mxCell>
        <mxCell id="MU1Cu7uwluX9F1lw6Ey1-70" value="" style="edgeStyle=orthogonalEdgeStyle;rounded=0;orthogonalLoop=1;jettySize=auto;html=1;dashed=1;" parent="1" source="MU1Cu7uwluX9F1lw6Ey1-67" target="MU1Cu7uwluX9F1lw6Ey1-69" edge="1">
          <mxGeometry relative="1" as="geometry"/>
        </mxCell>
        <mxCell id="MU1Cu7uwluX9F1lw6Ey1-67" value="如果hypervisor支持共享文件系统的话，setupStorage 用以共享" style="rounded=0;whiteSpace=wrap;html=1;dashed=1;fillColor=none;" parent="1" vertex="1">
          <mxGeometry x="1096" y="587" width="120" height="70" as="geometry"/>
        </mxCell>
        <mxCell id="MU1Cu7uwluX9F1lw6Ey1-69" value="发送 rpc.createSandbox&lt;br&gt;请求" style="rounded=0;whiteSpace=wrap;html=1;dashed=1;fillColor=none;" parent="1" vertex="1">
          <mxGeometry x="1246" y="587" width="120" height="70" as="geometry"/>
        </mxCell>
        <mxCell id="InuDyYg3k96elnhqx1I6-7" value="" style="endArrow=classic;html=1;entryX=0.5;entryY=1;entryDx=0;entryDy=0;exitX=0.433;exitY=-0.033;exitDx=0;exitDy=0;exitPerimeter=0;" edge="1" parent="1" source="InuDyYg3k96elnhqx1I6-20" target="InuDyYg3k96elnhqx1I6-21">
          <mxGeometry width="50" height="50" relative="1" as="geometry">
            <mxPoint x="129" y="490" as="sourcePoint"/>
            <mxPoint x="200" y="420" as="targetPoint"/>
          </mxGeometry>
        </mxCell>
        <mxCell id="InuDyYg3k96elnhqx1I6-8" value="shimv2 start" style="text;html=1;align=center;verticalAlign=middle;resizable=0;points=[];;labelBackgroundColor=#ffffff;" vertex="1" connectable="0" parent="InuDyYg3k96elnhqx1I6-7">
          <mxGeometry x="-0.2" y="1" relative="1" as="geometry">
            <mxPoint as="offset"/>
          </mxGeometry>
        </mxCell>
        <mxCell id="InuDyYg3k96elnhqx1I6-9" value="shimv2" style="rounded=1;whiteSpace=wrap;html=1;" vertex="1" parent="1">
          <mxGeometry x="99" y="376" width="60" height="30" as="geometry"/>
        </mxCell>
        <mxCell id="InuDyYg3k96elnhqx1I6-10" value="" style="endArrow=classic;html=1;entryX=0.5;entryY=1;entryDx=0;entryDy=0;exitX=0.5;exitY=0;exitDx=0;exitDy=0;" edge="1" parent="1" source="InuDyYg3k96elnhqx1I6-9" target="InuDyYg3k96elnhqx1I6-12">
          <mxGeometry width="50" height="50" relative="1" as="geometry">
            <mxPoint x="-239" y="319" as="sourcePoint"/>
            <mxPoint x="-120" y="319" as="targetPoint"/>
          </mxGeometry>
        </mxCell>
        <mxCell id="InuDyYg3k96elnhqx1I6-11" value="load spec&lt;br&gt;get netns" style="text;html=1;align=center;verticalAlign=middle;resizable=0;points=[];;labelBackgroundColor=#ffffff;" vertex="1" connectable="0" parent="InuDyYg3k96elnhqx1I6-10">
          <mxGeometry x="-0.1899" y="3" relative="1" as="geometry">
            <mxPoint as="offset"/>
          </mxGeometry>
        </mxCell>
        <mxCell id="InuDyYg3k96elnhqx1I6-12" value="fork new shimv2 &lt;br&gt;into netns/ jail shimv2&lt;br&gt;process" style="rounded=1;whiteSpace=wrap;html=1;" vertex="1" parent="1">
          <mxGeometry x="69" y="250" width="120" height="60" as="geometry"/>
        </mxCell>
        <mxCell id="InuDyYg3k96elnhqx1I6-13" value="" style="endArrow=classic;html=1;entryX=0.5;entryY=1;entryDx=0;entryDy=0;exitX=0.5;exitY=0;exitDx=0;exitDy=0;" edge="1" parent="1" source="InuDyYg3k96elnhqx1I6-21" target="InuDyYg3k96elnhqx1I6-22">
          <mxGeometry width="50" height="50" relative="1" as="geometry">
            <mxPoint y="257.5" as="sourcePoint"/>
            <mxPoint x="50" y="207.5" as="targetPoint"/>
          </mxGeometry>
        </mxCell>
        <mxCell id="InuDyYg3k96elnhqx1I6-20" value="containerd/cri" style="rounded=1;whiteSpace=wrap;html=1;fillColor=none;" vertex="1" parent="1">
          <mxGeometry x="76" y="600" width="120" height="60" as="geometry"/>
        </mxCell>
        <mxCell id="InuDyYg3k96elnhqx1I6-21" value="" style="rounded=0;whiteSpace=wrap;html=1;fillColor=none;dashed=1;" vertex="1" parent="1">
          <mxGeometry x="39" y="225" width="180" height="221" as="geometry"/>
        </mxCell>
        <mxCell id="InuDyYg3k96elnhqx1I6-23" value="CreateSandbox" style="rounded=1;whiteSpace=wrap;html=1;" vertex="1" parent="1">
          <mxGeometry x="69" y="130" width="120" height="40" as="geometry"/>
        </mxCell>
        <mxCell id="InuDyYg3k96elnhqx1I6-24" value="" style="endArrow=classic;startArrow=classic;html=1;entryX=0.75;entryY=0;entryDx=0;entryDy=0;exitX=0.702;exitY=1.031;exitDx=0;exitDy=0;exitPerimeter=0;strokeWidth=5;" edge="1" parent="1" source="InuDyYg3k96elnhqx1I6-22" target="InuDyYg3k96elnhqx1I6-20">
          <mxGeometry width="50" height="50" relative="1" as="geometry">
            <mxPoint x="40" y="810" as="sourcePoint"/>
            <mxPoint x="90" y="760" as="targetPoint"/>
          </mxGeometry>
        </mxCell>
        <mxCell id="InuDyYg3k96elnhqx1I6-25" value="ttrpc requests" style="text;html=1;align=center;verticalAlign=middle;resizable=0;points=[];;labelBackgroundColor=#ffffff;" vertex="1" connectable="0" parent="InuDyYg3k96elnhqx1I6-24">
          <mxGeometry x="0.4855" y="4" relative="1" as="geometry">
            <mxPoint as="offset"/>
          </mxGeometry>
        </mxCell>
      </root>
    </mxGraphModel>
  </diagram>
</mxfile>
